<?xml version="1.0" standalone="no"?>
<!DOCTYPE svg PUBLIC "-//W3C//DTD SVG 20010904//EN"
 "http://www.w3.org/TR/2001/REC-SVG-20010904/DTD/svg10.dtd">
<svg version="1.0" xmlns="http://www.w3.org/2000/svg"
 width="179.000000pt" height="46.000000pt" viewBox="0 0 179.000000 46.000000"
 preserveAspectRatio="xMidYMid meet">

<g transform="translate(0.000000,46.000000) scale(0.100000,-0.100000)"
fill="#000000" stroke="none">
<path d="M80 225 l0 -125 40 0 40 0 0 60 0 60 40 0 c22 0 40 5 40 10 0 6 -18
10 -40 10 l-40 0 0 45 0 45 45 0 c25 0 45 5 45 10 0 6 -35 10 -85 10 l-85 0 0
-125z"/>
<path d="M274 335 c-9 -22 9 -37 37 -33 16 2 24 10 24 23 0 26 -52 35 -61 10z"/>
<path d="M370 225 l0 -125 40 0 40 0 0 125 0 125 -40 0 -40 0 0 -125z"/>
<path d="M483 334 c-8 -23 12 -38 41 -30 29 7 35 31 10 40 -26 10 -44 7 -51
-10z"/>
<path d="M790 325 c0 -23 4 -26 28 -23 38 4 38 42 0 46 -24 3 -28 0 -28 -23z"/>
<path d="M1000 225 c0 -103 3 -125 15 -125 11 0 15 18 17 78 l3 77 45 -77 c41
-72 48 -78 78 -78 l32 0 0 125 c0 103 -3 125 -15 125 -11 0 -15 -19 -17 -86
l-3 -85 -49 85 c-44 76 -53 86 -78 86 l-28 0 0 -125z"/>
<path d="M1580 329 c-12 -22 -4 -42 9 -21 5 9 14 9 40 -1 30 -11 34 -10 52 12
21 26 18 41 -5 22 -11 -9 -20 -10 -35 -2 -30 16 -49 13 -61 -10z"/>
<path d="M1453 325 c-18 -8 -33 -21 -33 -29 0 -8 -6 -17 -12 -20 -10 -5 -10
-7 0 -12 8 -4 12 -29 12 -73 0 -39 5 -72 12 -79 17 -17 73 -15 88 3 10 12 10
15 -4 15 -13 0 -16 12 -16 65 0 51 3 65 15 65 8 0 15 5 15 10 0 6 -7 10 -15
10 -10 0 -15 10 -15 30 0 34 -2 35 -47 15z"/>
<path d="M270 190 l0 -90 35 0 35 0 0 90 0 90 -35 0 -35 0 0 -90z"/>
<path d="M470 190 l0 -90 40 0 40 0 0 90 0 90 -40 0 -40 0 0 -90z"/>
<path d="M580 160 l0 -120 35 0 c33 0 35 2 35 33 0 32 1 33 34 29 43 -5 76 33
76 88 0 66 -61 115 -98 78 -9 -9 -12 -9 -12 0 0 7 -14 12 -35 12 l-35 0 0
-120z m100 30 c0 -49 -13 -73 -24 -44 -14 36 -3 109 15 98 5 -3 9 -27 9 -54z"/>
<path d="M780 190 l0 -90 40 0 40 0 0 90 0 90 -40 0 -40 0 0 -90z"/>
<path d="M1240 261 c-21 -17 -23 -22 -10 -31 22 -14 27 -12 33 11 7 26 42 22
42 -5 0 -11 -16 -25 -45 -39 -49 -24 -62 -53 -36 -79 17 -17 186 -24 186 -7 0
5 -4 9 -10 9 -6 0 -10 28 -10 63 0 34 -4 68 -9 76 -5 8 -32 16 -63 19 -43 3
-58 0 -78 -17z m61 -124 c-8 -8 -11 -2 -11 19 0 40 14 54 18 19 2 -15 -1 -32
-7 -38z"/>
<path d="M1568 274 c-22 -7 -32 -35 -16 -46 20 -12 25 -10 31 13 7 26 42 22
42 -5 0 -11 -16 -25 -45 -39 -49 -24 -62 -53 -36 -79 17 -17 186 -24 186 -7 0
5 -4 9 -10 9 -6 0 -10 28 -10 63 0 34 -4 68 -9 76 -9 14 -100 24 -133 15z m53
-137 c-8 -8 -11 -2 -11 19 0 40 14 54 18 19 2 -15 -1 -32 -7 -38z"/>
</g>
</svg>
